<svg width="173" height="200" viewBox="0 0 173 200" fill="none" xmlns="http://www.w3.org/2000/svg">
<path d="M133.893 92.6961C133.031 92.2832 132.156 91.8858 131.27 91.5053C129.726 63.0606 114.183 46.776 88.0853 46.6094C87.9671 46.6086 87.8495 46.6086 87.7313 46.6086C72.1213 46.6086 59.1387 53.2718 51.1479 65.3966L65.501 75.2425C71.4704 66.1857 80.8388 64.255 87.7381 64.255C87.8178 64.255 87.8978 64.255 87.9767 64.2557C96.5698 64.3105 103.054 66.809 107.251 71.6813C110.305 75.2284 112.348 80.1302 113.359 86.3165C105.741 85.0216 97.501 84.6234 88.6927 85.1284C63.8799 86.5577 47.9282 101.029 48.9996 121.137C49.5432 131.337 54.6247 140.112 63.3073 145.845C70.6483 150.691 80.1031 153.06 89.9295 152.524C102.906 151.812 113.086 146.861 120.189 137.808C125.582 130.933 128.994 122.024 130.5 110.798C136.684 114.53 141.268 119.442 143.799 125.346C148.103 135.382 148.354 151.875 134.897 165.321C123.106 177.1 108.933 182.196 87.5141 182.353C63.7544 182.177 45.7852 174.557 34.1022 159.705C23.162 145.798 17.508 125.71 17.2971 100C17.508 74.2894 23.162 54.2017 34.1022 40.2945C45.7852 25.4426 63.7541 17.8229 87.5138 17.6464C111.446 17.8243 129.728 25.4806 141.858 40.4042C147.806 47.7225 152.291 56.9258 155.247 67.6566L172.067 63.169C168.483 49.9606 162.845 38.5789 155.172 29.1396C139.621 10.007 116.877 0.203279 87.5724 0H87.4551C58.21 0.202573 35.7209 10.0435 20.6128 29.2493C7.16865 46.34 0.23375 70.1205 0.000729164 99.9297L0 100L0.000729164 100.07C0.23375 129.879 7.16865 153.66 20.6128 170.751C35.7209 189.956 58.21 199.798 87.4551 200H87.5724C113.573 199.82 131.9 193.012 146.998 177.928C166.751 158.194 166.156 133.457 159.646 118.272C154.975 107.382 146.07 98.5377 133.893 92.6961ZM89.0005 134.903C78.1255 135.516 66.8275 130.634 66.2704 120.179C65.8575 112.427 71.7873 103.777 89.6679 102.747C91.7156 102.629 93.725 102.571 95.699 102.571C102.194 102.571 108.27 103.202 113.794 104.409C111.733 130.141 99.6479 134.319 89.0005 134.903Z" fill="black"/>
</svg>
